<svg id="Layer_1" data-name="Layer 1" xmlns="http://www.w3.org/2000/svg" viewBox="0 0 103.92 58.03"><defs><style>.cls-1{fill:#ffa45b;}.cls-2{fill:#ffda77;}</style></defs><path class="cls-1" d="M679.7-244.76a6.37,6.37,0,0,0,.67.94,8.65,8.65,0,0,0,2.83,2,20,20,0,0,0,3.12,1.23c1.37.43,3.31,1,5.65,1.59,2,.48,4.16,1,7.2,1.48,9.83,1.69,18.09,2.3,18.09,2.3,8.07.6,13.85.32,19.59.32A105.09,105.09,0,0,0,751-236.72s6-1.18,10.12-4.55a9.06,9.06,0,0,0,1.3-1.35,8.06,8.06,0,0,0,1.25-2.48A29.13,29.13,0,0,1,760-228.73a30,30,0,0,1-8.81,9.44c-5.3,3.9-10.29,5.3-14.48,6.44a56.14,56.14,0,0,1-17.19,1.91c-2.11-.11-21.65-1.36-32.87-14a28.51,28.51,0,0,1-5.18-8.2A26.75,26.75,0,0,1,679.7-244.76Z" transform="translate(-674.86 268.91)"/><path class="cls-2" d="M685.49-247.42a3.77,3.77,0,0,0,.21,1.34,4.23,4.23,0,0,0,1.66,2c2.4,1.68,5.94,2.75,8.67,3.53,1.54.44,2.31.66,2.93.82a59.27,59.27,0,0,0,8.46,1.37c2.55.28,5.84.57,9.73.75-2.59,0-5.37,0-8.33-.24-3.7-.26-7.12-.7-10.22-1.23,0,0-1.1-.16-2.9-.53a57.19,57.19,0,0,1-7.06-1.83,38.76,38.76,0,0,1-5.28-2.39,6.15,6.15,0,0,1-2-1.57,4.79,4.79,0,0,1-1.15-2.42c-.14-3,6.4-5.51,7.79-6a27.81,27.81,0,0,1,5-1.38c4.85-1,7.4-1.5,11.87-2a139.58,139.58,0,0,1,19.34-.89c4.22.09,7.33.35,10.78.63a103.44,103.44,0,0,1,11.28,1.4c2.26.43,3.66.79,5.34,1.22a37.6,37.6,0,0,1,7.4,2.7,12.56,12.56,0,0,1,2,1.35,5.93,5.93,0,0,1,1.23,1.27A4.76,4.76,0,0,1,763-248a11.67,11.67,0,0,0-1.33-1.67c-1.14-1.16-2.87-2.41-7.79-3.84-2.16-.62-3.87-1-5-1.19a108.34,108.34,0,0,0-14.12-1.95c-3.23-.23-5.51-.25-8.77-.27a163.35,163.35,0,0,0-18.64.85c-1.8.21-4.68.56-8.27,1.32a62.22,62.22,0,0,0-7.86,2.33,20.56,20.56,0,0,0-3.74,2,4.09,4.09,0,0,0-1.83,2A3.32,3.32,0,0,0,685.49-247.42Z" transform="translate(-674.86 268.91)"/><path class="cls-2" d="M705.17-252.23a181.74,181.74,0,0,1-18.68-10.53c-3-1.95-5.9-3.93-8.6-5.89a2.13,2.13,0,0,0-1.66-.15,2.31,2.31,0,0,0-1.34,1.79,2,2,0,0,0,.2,1.27,1.75,1.75,0,0,0,.69.68c.79.47,12.36,6.49,28.18,14.66a7.86,7.86,0,0,0,.41,3.16c1,2.88,3.51,4.33,5,5.21a15.31,15.31,0,0,0,4.29,1.66,19,19,0,0,0,4.31.46,8.54,8.54,0,0,0,2.78-.23,4.48,4.48,0,0,0,2.55-1.6,4.56,4.56,0,0,0,.47-3.43,6.49,6.49,0,0,0-.74-2.06,8.39,8.39,0,0,0-1.42-1.93,17,17,0,0,0-7.41-4.26,12.79,12.79,0,0,0-4.14-.6,8,8,0,0,0-3.64.86A6.76,6.76,0,0,0,705.17-252.23Z" transform="translate(-674.86 268.91)"/><path class="cls-2" d="M778.16-264.66,749.49-250.2a7.3,7.3,0,0,1-.28,2.71c-1.12,3.7-5.08,5.36-7.11,6.22a18.49,18.49,0,0,1-7,1.41c.57-.19,1.3-.45,2.13-.78,1.24-.48,1.33-.59,3.1-1.36,2.32-1,3.09-1.24,3.78-2.18a3.85,3.85,0,0,0,.43-.73c-.32.08-.77.2-1.31.39-.35.12-.61.23-.71.27-2.68,1.11-4.25,1.81-4.25,1.81-3.92,1.75-4.95,2-6.17,1.87-.34,0-1.34-.14-1.44-.57-.15-.64,1.76-1.6,2.14-1.79a15.29,15.29,0,0,1,2.57-.92c1.93-.63,1.42-.65,4.32-1.73a9,9,0,0,0,2.64-1.42c.32-.25.91-.73.81-.95s-1.83.08-2.24.19a15.43,15.43,0,0,0-2.64,1c-3.42,1.46-3.16,1-4.5,1.8a12.73,12.73,0,0,1-2.24,1,4.72,4.72,0,0,1-1.58.12.4.4,0,0,1-.13,0c-.33-.12-.44-.6-.46-.69-.17-.75.78-1.64,1-1.9a7.16,7.16,0,0,1,2-1.2,25.54,25.54,0,0,1,2.48-.82c.86-.29.52-.21,2.61-1,1-.35,1.89-.86,2.88-1.11a2.56,2.56,0,0,0,1-.44,2.32,2.32,0,0,0,.35-.33,9.12,9.12,0,0,0-1.36,0,9,9,0,0,0-2,.44c-1,.32-1.16.46-2.76,1.06-1.07.39-1,.31-1.73.6-1.71.67-2.53,1.22-2.64,1.07s.76-1,.88-1.1a17.88,17.88,0,0,1,8.12-4.31,9.59,9.59,0,0,1,4.85,0,9.85,9.85,0,0,1,3.26,1.51c4.32-2,9-4.38,13.8-7.21a162.68,162.68,0,0,0,13.71-9,2.34,2.34,0,0,1,2.83,1.17A2.33,2.33,0,0,1,778.16-264.66Z" transform="translate(-674.86 268.91)"/></svg>